# xmcd CD database file
# Generated: do dec 23 19:38:59 2004 by KSCD
# 
# Track frame offsets:
#       150
#       22317
#       53270
#       66137
#       85612
#       111617
#       137615
#       158245
#       187470
#       216255
#       242623
#       274838
#       298743
#       323623
#
# Disc length: 4797 seconds
#
# Revision: 4
# Processed by: cddbd v1.5.1PL0 Copyright (c) Steve Scherf et al.
# Submitted via: Kscd 1.3.3
#
DISCID=d412bb0e
DTITLE=Yes - Yes (Remastered)
DYEAR=2003
DGENRE=Progressive Rock
TTITLE0=Beyond And Before
TTITLE1=I See You
TTITLE2=Yesterday And Today
TTITLE3=Looking Around
TTITLE4=Harold Land
TTITLE5=Every Little Thing
TTITLE6=Sweetness
TTITLE7=Survival
TTITLE8=Everydays (Single Version) - BONUS
TTITLE9=Dear Father (Early Version #2) - BONUS
TTITLE10=Something's Coming - BONUS
TTITLE11=Everydays (Early Version) - BONUS
TTITLE12=Dear Father (Early Version #1) - BONUS
TTITLE13=Something's Coming (Early Version) - BONUS
EXTD=the \ninexpEXPERT REVIEW: Yes' debut album is surprisingly strong, gi
EXTD=venD) a miniature LP style sleeve for initial pressing. \n\nAMG  editi
EXTD=on featuring High Definition Digital Rematersing \n(HDC003\n\nAlbum De
EXTD=tails (Mini LP CD Packaging]\nJapanese limited98\nRemastered, Expanded
EXTD=Rhino Edition Released January 14, 2 September 20, 1994\nJapanese Min
EXTD=i LP Version Released March 31, 19ld CD Edition Released N/A\nRemaster
EXTD=ed Edition Released YEAR: 2003 ID3G:  92 Originally Released October 1
EXTD=5, 1969\nGo
EXTT0=
EXTT1=
EXTT2=
EXTT3=
EXTT4=
EXTT5=
EXTT6=
EXTT7=
EXTT8=
EXTT9=
EXTT10=
EXTT11=
EXTT12=
EXTT13=
PLAYORDER=
